<?xml version="1.0" ?><!DOCTYPE svg  PUBLIC '-//W3C//DTD SVG 1.1//EN'  'http://www.w3.org/Graphics/SVG/1.1/DTD/svg11.dtd'><svg enable-background="new 0 0 512 512" height="512px" id="Calque_1" version="1.1" viewBox="0 0 512 512" width="512px" xml:space="preserve" xmlns="http://www.w3.org/2000/svg" xmlns:xlink="http://www.w3.org/1999/xlink"><path d="M478.59,227.435c-0.043-0.771-0.088-1.437-0.136-2.019c21.721-5.638,23.016-22.862,23.016-26.847  c0-12.159-6.361-21.724-17.452-26.242c-7.242-2.951-15.343-3.357-23.018-3.357c-13.631,0-22.729,3.213-28.318,10.36  c-3.717-6.044-7.763-13.57-10.017-17.763c-3.74-6.964-7.273-13.542-10.48-18.152c-11.291-16.232-33.083-21.822-50.807-24.877  c-13.799-2.378-83.956-3.323-105.183-3.557l-0.143-0.001l-0.301,0.001c-21.174,0.233-91.331,1.178-105.13,3.557  c-17.724,3.055-39.515,8.644-50.806,24.877c-3.209,4.614-6.746,11.198-10.499,18.184c-2.244,4.175-6.286,11.696-10,17.736  c-5.593-7.154-14.693-10.365-28.327-10.365c-7.672,0-15.769,0.407-23.011,3.358c-11.089,4.519-17.45,14.083-17.45,26.242  c0,3.985,1.294,21.211,23.02,26.848c-0.048,0.59-0.094,1.255-0.136,2.014c-12.604,7.891-17.432,21.333-16.404,33.196v106.763  c0,16.338,13.292,29.63,29.63,29.63h47.45c8.795,0,16.859-3.893,22.348-10.238c10.623,0.83,22.307,1.249,34.873,1.249  c3.098,0,6.159-0.809,8.888-2.359l10.667-6.102c11.72,1.958,36.751,4.69,85.135,4.69c48.399,0,73.417-2.731,85.129-4.69  l10.716,6.126c2.691,1.527,5.75,2.335,8.846,2.335c12.565,0,24.247-0.419,34.863-1.249c5.49,6.347,13.558,10.238,22.356,10.238  h47.45c16.338,0,29.63-13.292,29.63-29.63V260.626C496.018,248.767,491.192,235.327,478.59,227.435z" fill="#FF50CE"/><linearGradient gradientUnits="userSpaceOnUse" id="SVGID_1_" x1="255.9998" x2="255.9997" y1="114.9797" y2="397.0198"><stop offset="0" style="stop-color:#FFFFFF;stop-opacity:0"/><stop offset="1" style="stop-color:#000000;stop-opacity:0.3"/></linearGradient><path d="M478.59,227.435c-0.043-0.771-0.088-1.437-0.136-2.019c21.721-5.638,23.016-22.862,23.016-26.847  c0-12.159-6.361-21.724-17.452-26.242c-7.242-2.951-15.343-3.357-23.018-3.357c-13.631,0-22.729,3.213-28.318,10.36  c-3.717-6.044-7.763-13.57-10.017-17.763c-3.74-6.964-7.273-13.542-10.48-18.152c-11.291-16.232-33.083-21.822-50.807-24.877  c-13.799-2.378-83.956-3.323-105.183-3.557l-0.143-0.001l-0.301,0.001c-21.174,0.233-91.331,1.178-105.13,3.557  c-17.724,3.055-39.515,8.644-50.806,24.877c-3.209,4.614-6.746,11.198-10.499,18.184c-2.244,4.175-6.286,11.696-10,17.736  c-5.593-7.154-14.693-10.365-28.327-10.365c-7.672,0-15.769,0.407-23.011,3.358c-11.089,4.519-17.45,14.083-17.45,26.242  c0,3.985,1.294,21.211,23.02,26.848c-0.048,0.59-0.094,1.255-0.136,2.014c-12.604,7.891-17.432,21.333-16.404,33.196v106.763  c0,16.338,13.292,29.63,29.63,29.63h47.45c8.795,0,16.859-3.893,22.348-10.238c10.623,0.83,22.307,1.249,34.873,1.249  c3.098,0,6.159-0.809,8.888-2.359l10.667-6.102c11.72,1.958,36.751,4.69,85.135,4.69c48.399,0,73.417-2.731,85.129-4.69  l10.716,6.126c2.691,1.527,5.75,2.335,8.846,2.335c12.565,0,24.247-0.419,34.863-1.249c5.49,6.347,13.558,10.238,22.356,10.238  h47.45c16.338,0,29.63-13.292,29.63-29.63V260.626C496.018,248.767,491.192,235.327,478.59,227.435z" fill="url(#SVGID_1_)"/><g><polygon fill="#FFFFFF" points="213.17,337.66 193.62,351.03 318.38,351.03 298.83,337.66  "/><path d="M113.66,261.25l-10.45,13.5c6.57,3.4,13.78,4.99,19.83,5.68l-7.61-18.46L113.66,261.25z" fill="#FFFFFF"/><path d="M456.83,354.469c-9.43,7.55-25.24,12.811-47.21,15.761c1.21,3.449,4.49,5.96,8.29,5.96h47.45   c4.85,0,8.8-3.95,8.8-8.801v-107.67c0-0.16,0.01-0.319,0.04-0.479c0.189-1.24,1.39-11.53-10.25-15.88   c0.189,25.59-0.49,68.91-0.59,75.4C463.13,328.12,462.05,350.3,456.83,354.469z" fill="#FFFFFF"/><path d="M68.29,208.76c0.44-0.26,0.88-0.53,1.32-0.79c-1.77-2.1-3.59-5-4.4-8.65c-0.14-0.63-0.26-1.22-0.37-1.78   c-1.17-5.79-1.56-7.74-13.85-7.74c-18.19,0-19.63,3.8-19.63,8.77c0,6.8,11.18,7.81,17.85,7.81h0.85   c5.34-0.02,11.31-0.01,16.24,3.56C66.95,209.55,67.61,209.16,68.29,208.76z" fill="#FFFFFF"/><path d="M436.24,336.46c0.02,0.32-0.03,0.63-0.11,0.92c0,0.03-0.01,0.05-0.01,0.08c-0.04,0.12-0.09,0.24-0.14,0.35   c-0.011,0.04-0.03,0.07-0.051,0.11c-0.05,0.11-0.109,0.22-0.18,0.32c-0.01,0.01-0.01,0.02-0.02,0.029l-9.9,14.61   c-0.54,0.811-1.45,1.29-2.41,1.29h-64.88c-0.36,0-0.71-0.07-1.05-0.2c-15.61-5.97-41.49-15.27-48.2-16.22l20.17,13.79   c1.05,0.72,1.521,2.05,1.14,3.27c-0.38,1.221-1.51,2.051-2.79,2.051H184.18c-1.27,0-2.41-0.83-2.78-2.051   c-0.38-1.22,0.08-2.55,1.14-3.27l20.17-13.79c-6.72,0.96-32.59,10.25-48.2,16.22c-0.34,0.13-0.69,0.2-1.05,0.2H88.58   c-0.97,0-1.87-0.479-2.41-1.29l-9.91-14.61c0-0.01-0.01-0.029-0.01-0.039c-0.07-0.091-0.13-0.2-0.18-0.311   c-0.02-0.04-0.04-0.07-0.06-0.12c-0.05-0.109-0.09-0.22-0.13-0.34c0-0.03-0.01-0.06-0.02-0.09c-0.08-0.29-0.12-0.59-0.1-0.91   l2.55-44.41l-24.45-42.66c-0.04,19.99,0.28,48.669,0.62,69.27c0.32,13.39,2.14,29.16,4.34,31.27c10.01,8,27.7,12.46,47.01,14.83   c0.01,0,0.02,0,0.02,0c0.15,0,0.3,0.03,0.44,0.05c14.73,1.78,30.37,2.37,44.24,2.391l15.83-9.05c0.69-0.391,1.5-0.49,2.25-0.271   c0.19,0.05,20.55,5.54,87.39,5.54s87.2-5.49,87.39-5.54c0.75-0.21,1.57-0.12,2.24,0.271l15.84,9.05   c13.9-0.021,29.57-0.61,44.32-2.4c0.12-0.01,0.229-0.04,0.36-0.04h0.029c19.311-2.38,37-6.84,47.011-14.84   c2.189-2.1,4.01-17.87,4.329-31.28c0.341-20.59,0.66-49.27,0.62-69.26l-24.449,42.67L436.24,336.46z" fill="#FFFFFF"/><path d="M421.87,348.33l7.87-11.61l-22.09-29.31C331.97,327.33,259.42,324.83,256,324.7   c-3.42,0.13-75.98,2.63-151.65-17.29l-22.09,29.31l7.87,11.61h62.8c6.33-2.41,43.55-16.5,50.72-16.5h95.94   c0.09,0,0.18-0.01,0.271,0h8.489c7.17,0,44.391,14.09,50.721,16.5H421.87z" fill="#FFFFFF"/><path d="M48.64,318.78c-0.1-6.511-0.78-49.82-0.59-75.42c-11.98,4.5-10.33,15.38-10.25,15.88   c0.03,0.16,0.04,0.319,0.04,0.479v107.67c0,4.851,3.95,8.801,8.8,8.801h47.45c3.79,0,7.08-2.511,8.28-5.96   c-21.95-2.95-37.77-8.211-47.21-15.761C49.95,350.3,48.87,328.12,48.64,318.78z" fill="#FFFFFF"/><path d="M396.56,261.969l-7.609,18.46c6.069-0.699,13.27-2.279,19.84-5.68l-10.45-13.5L396.56,261.969z" fill="#FFFFFF"/><path d="M436.361,211.16c0,0-0.011,0-0.011-0.01c-3.649-2.2-7.17-4.43-10-6.62c-7.26-5.61-15.1-20.2-22.02-33.07   c-3.45-6.44-6.72-12.52-9.25-16.15c-6.95-10-24.58-14.05-37.24-16.24c-13.229-2.28-100.16-3.24-101.84-3.26   c-1.68,0.02-88.61,0.98-101.84,3.26c-12.66,2.19-30.29,6.24-37.24,16.24c-2.53,3.63-5.8,9.71-9.25,16.15   c-6.92,12.87-14.76,27.46-22.02,33.07c-3.95,3.06-9.26,6.2-14.39,9.24c-6.46,3.84-16.23,9.63-16.85,12.43   c-0.25,1.1-0.4,5.33-0.48,11.59l29.87,52.12c0.28,0.49,0.42,1.05,0.38,1.609L82.13,327.2l18.74-24.87   c0.72-0.95,1.94-1.36,3.09-1.061c76.92,20.62,151.17,17.631,151.91,17.591c0.05,0,0.09,0.01,0.13,0.01s0.08-0.01,0.13-0.01   c0.74,0.029,74.99,3.029,151.91-17.591c1.15-0.3,2.37,0.11,3.09,1.061l18.74,24.87l-2.05-35.681c-0.04-0.56,0.1-1.119,0.38-1.609   l29.87-52.13c-0.08-6.25-0.23-10.48-0.48-11.58c-0.62-2.8-10.39-8.59-16.859-12.43C439.281,212.91,437.81,212.04,436.361,211.16z    M414.7,278.099c-10.05,6.261-21.92,8.11-30.11,8.561c-1.79,0.109-3.64,0.17-5.46,0.17c-0.01,0-0.01,0-0.01,0   c-4.46,0-7.34-0.34-7.46-0.36c-0.71-0.09-1.37-0.43-1.84-0.979l-8.54-9.771l-83.681,10.92c-0.13,0.011-0.25,0.021-0.38,0.021   c-0.859,0-1.689-0.38-2.25-1.061l-9.029-10.949h-19.88l-9.03,10.949c-0.56,0.681-1.39,1.061-2.25,1.061   c-0.13,0-0.25-0.01-0.38-0.021l-67.71-8.84c-0.01,0-0.01,0-0.02,0l-15.95-2.08l-8.54,9.771c-0.47,0.55-1.13,0.89-1.85,0.979   c-0.12,0.021-2.99,0.36-7.46,0.36c-1.82,0-3.67-0.061-5.49-0.18c-8.16-0.44-20.03-2.29-30.08-8.551   c-11.42-7.13-17.79-18.189-18.93-32.859c-0.08-1.01,0.36-1.99,1.18-2.58c0.81-0.6,1.88-0.73,2.82-0.36l31.51,12.75   c0.04,0.02,0.09,0.03,0.13,0.05l4.7,1.91c0.04,0.01,0.08,0.03,0.12,0.04l21.1,8.54l-47.46-57.26c-0.01-0.01-0.02-0.03-0.03-0.04   c-0.11-0.13-0.21-0.28-0.29-0.43c-0.02-0.04-0.03-0.08-0.05-0.11c-0.04-0.09-0.09-0.18-0.12-0.27c-0.02-0.04-0.02-0.07-0.03-0.1   c-0.02-0.06-0.04-0.12-0.05-0.18c-0.03-0.11-0.05-0.22-0.07-0.34c-0.01-0.05-0.02-0.11-0.02-0.16c-0.01-0.16-0.01-0.32,0-0.48   v-0.03c0.02-0.16,0.05-0.33,0.09-0.49c0.02-0.05,0.04-0.1,0.05-0.15c0.04-0.11,0.08-0.23,0.14-0.34c0.02-0.05,0.05-0.1,0.07-0.15   c0.07-0.12,0.15-0.24,0.23-0.35c0.02-0.03,0.04-0.05,0.06-0.08c0.1-0.12,0.2-0.23,0.32-0.34c3.15-2.82,6.46-9.39,10.3-16.99   c6.07-12.05,13.63-27.04,25.23-35.96c18.91-14.54,122.3-11.62,127.7-11.46c5.4-0.16,108.79-3.08,127.69,11.46   c11.6,8.92,19.159,23.91,25.239,35.96c3.83,7.6,7.15,14.17,10.301,16.99c0.119,0.11,0.22,0.22,0.319,0.34   c0.021,0.03,0.03,0.05,0.05,0.08c0.091,0.11,0.17,0.23,0.24,0.35c0.021,0.05,0.05,0.1,0.07,0.15c0.05,0.12,0.1,0.23,0.14,0.34   c0.01,0.05,0.03,0.1,0.04,0.15c0.05,0.16,0.08,0.33,0.101,0.49c0,0.01,0,0.02,0,0.02c0.02,0.16,0.01,0.33,0,0.49   c-0.011,0.05-0.011,0.1-0.021,0.15c-0.02,0.12-0.04,0.24-0.07,0.36c-0.02,0.06-0.029,0.11-0.05,0.17c-0.01,0.03-0.01,0.06-0.03,0.1   c-0.029,0.1-0.079,0.19-0.13,0.28c-0.01,0.03-0.02,0.07-0.04,0.09c-0.09,0.16-0.18,0.31-0.29,0.45c-0.01,0.01-0.02,0.02-0.029,0.03   l-47.46,57.26l21.09-8.53c0.04-0.02,0.09-0.04,0.14-0.06l4.69-1.9l0.149-0.06l31.5-12.74c0.931-0.37,2-0.24,2.811,0.36   c0.819,0.59,1.27,1.57,1.189,2.58C432.49,259.91,426.12,270.969,414.7,278.099z" fill="#FFFFFF"/><path d="M461.941,206.38h0.85c6.67,0,17.85-1.01,17.85-7.81c0-4.97-1.449-8.77-19.64-8.77   c-12.28,0-12.67,1.95-13.84,7.74c-0.12,0.56-0.23,1.15-0.37,1.77c-0.81,3.66-2.63,6.56-4.4,8.66c0.44,0.26,0.88,0.53,1.32,0.79   c0.68,0.4,1.34,0.79,1.99,1.18C450.63,206.37,456.611,206.36,461.941,206.38z" fill="#FFFFFF"/><path d="M101.05,209.54l50.01,60.34l13.9,1.811l12.62-60.5C145.16,210.58,114.07,209.85,101.05,209.54z" fill="#FFFFFF"/><path d="M256,212.21c-17.83,0-45.26-0.4-72.48-0.9l-12.76,61.14l62.79,8.189l8.88-10.76   c0.56-0.67,1.38-1.06,2.25-1.06h22.64c0.87,0,1.689,0.39,2.25,1.06l8.87,10.76l63.42-8.27l-12.73-61.08   C301.7,211.8,273.97,212.21,256,212.21z" fill="#FFFFFF"/><path d="M335.071,211.18l12.59,60.43l13.27-1.73l50.021-60.34C398.01,209.85,367.25,210.57,335.071,211.18z" fill="#FFFFFF"/><path d="M432.45,242.66c-0.811-0.6-1.88-0.73-2.811-0.36l-31.5,12.74l-0.149,0.06l-4.69,1.9   c-0.05,0.02-0.1,0.04-0.14,0.06l-21.09,8.53l47.46-57.26c0.01-0.01,0.02-0.02,0.029-0.03c0.11-0.14,0.2-0.29,0.29-0.45   c0.021-0.02,0.03-0.06,0.04-0.09c0.051-0.09,0.101-0.18,0.13-0.28c0.021-0.04,0.021-0.07,0.03-0.1c0.021-0.06,0.03-0.11,0.05-0.17   c0.03-0.12,0.051-0.24,0.07-0.36c0.01-0.05,0.01-0.1,0.021-0.15c0.01-0.16,0.02-0.33,0-0.49c0,0,0-0.01,0-0.02   c-0.021-0.16-0.051-0.33-0.101-0.49c-0.01-0.05-0.03-0.1-0.04-0.15c-0.04-0.11-0.09-0.22-0.14-0.34c-0.021-0.05-0.05-0.1-0.07-0.15   c-0.07-0.12-0.149-0.24-0.24-0.35c-0.02-0.03-0.029-0.05-0.05-0.08c-0.1-0.12-0.2-0.23-0.319-0.34   c-3.15-2.82-6.471-9.39-10.301-16.99c-6.08-12.05-13.64-27.04-25.239-35.96c-18.9-14.54-122.29-11.62-127.69-11.46   c-5.4-0.16-108.79-3.08-127.7,11.46c-11.6,8.92-19.16,23.91-25.23,35.96c-3.84,7.6-7.15,14.17-10.3,16.99   c-0.12,0.11-0.22,0.22-0.32,0.34c-0.02,0.03-0.04,0.05-0.06,0.08c-0.08,0.11-0.16,0.23-0.23,0.35c-0.02,0.05-0.05,0.1-0.07,0.15   c-0.06,0.11-0.1,0.23-0.14,0.34c-0.01,0.05-0.03,0.1-0.05,0.15c-0.04,0.16-0.07,0.33-0.09,0.49v0.03c-0.01,0.16-0.01,0.32,0,0.48   c0,0.05,0.01,0.11,0.02,0.16c0.02,0.12,0.04,0.23,0.07,0.34c0.01,0.06,0.03,0.12,0.05,0.18c0.01,0.03,0.01,0.06,0.03,0.1   c0.03,0.09,0.08,0.18,0.12,0.27c0.02,0.03,0.03,0.07,0.05,0.11c0.08,0.15,0.18,0.3,0.29,0.43c0.01,0.01,0.02,0.03,0.03,0.04   l47.46,57.26l-21.1-8.54c-0.04-0.01-0.08-0.03-0.12-0.04l-4.7-1.91c-0.04-0.02-0.09-0.03-0.13-0.05L82.37,242.3   c-0.94-0.37-2.01-0.24-2.82,0.36c-0.82,0.59-1.26,1.57-1.18,2.58c1.14,14.67,7.51,25.729,18.93,32.859   c10.05,6.261,21.92,8.11,30.08,8.551c1.82,0.119,3.67,0.18,5.49,0.18c4.47,0,7.34-0.34,7.46-0.36c0.72-0.09,1.38-0.43,1.85-0.979   l8.54-9.771l15.95,2.08c0.01,0,0.01,0,0.02,0l67.71,8.84c0.13,0.011,0.25,0.021,0.38,0.021c0.86,0,1.69-0.38,2.25-1.061   l9.03-10.949h19.88l9.029,10.949c0.561,0.681,1.391,1.061,2.25,1.061c0.13,0,0.25-0.01,0.38-0.021l83.681-10.92l8.54,9.771   c0.47,0.55,1.13,0.89,1.84,0.979c0.12,0.021,3,0.36,7.46,0.36c0,0,0,0,0.01,0c1.82,0,3.67-0.061,5.46-0.17   c8.19-0.45,20.061-2.3,30.11-8.561c11.42-7.13,17.79-18.189,18.939-32.859C433.72,244.23,433.27,243.25,432.45,242.66z    M108.28,189.93c5.81-11.52,13.03-25.85,23.58-33.97c14.41-11.08,94.43-11.15,124.05-10.24c0.03,0,0.05-0.01,0.08-0.01   c0.04,0,0.07,0.01,0.1,0.01c29.62-0.91,109.641-0.84,124.05,10.24c10.54,8.11,17.771,22.45,23.58,33.96   c2.66,5.27,5.08,10.08,7.54,13.78c-24.06,0.57-114.649,2.68-155.26,2.68c-18.31,0-46.78-0.43-74.73-0.95c-0.06,0-0.12-0.01-0.19,0   c-33.97-0.64-67.15-1.42-80.34-1.73C103.2,200,105.62,195.2,108.28,189.93z M84.79,249.58l23.25,9.4l-9.82,12.689   C91.01,266.41,86.5,259.01,84.79,249.58z M103.21,274.75l10.45-13.5l1.77,0.72l7.61,18.46   C116.99,279.74,109.78,278.15,103.21,274.75z M138.55,280.78c-1.14,0.09-3.13,0.21-5.68,0.21c-1.1,0-2.21-0.03-3.32-0.07   L123,265.03l21.66,8.76L138.55,280.78z M164.96,271.69l-13.9-1.811l-50.01-60.34c13.02,0.31,44.11,1.04,76.53,1.65L164.96,271.69z    M278.441,280.639l-8.87-10.76c-0.561-0.67-1.38-1.06-2.25-1.06h-22.64c-0.87,0-1.69,0.39-2.25,1.06l-8.88,10.76l-62.79-8.189   l12.76-61.14c27.22,0.5,54.65,0.9,72.48,0.9c17.97,0,45.7-0.41,73.13-0.92l12.73,61.08L278.441,280.639z M360.93,269.88   l-13.27,1.73l-12.59-60.43c32.18-0.61,62.939-1.33,75.88-1.64L360.93,269.88z M382.45,280.92c-1.11,0.04-2.22,0.07-3.32,0.07   c-0.01,0-0.01,0-0.01,0c-2.54,0-4.53-0.12-5.67-0.21l-6.11-6.99l21.65-8.76L382.45,280.92z M388.95,280.429l7.609-18.46l1.78-0.72   l10.45,13.5C402.22,278.15,395.02,279.73,388.95,280.429z M413.781,271.67l-9.82-12.689l23.25-9.4   C425.5,259.01,420.99,266.42,413.781,271.67z" fill="#052C49"/><path d="M461.93,212.21h0.86c20.61,0,23.68-8.54,23.68-13.64c0-13.47-13.14-14.6-25.47-14.6   c-15.37,0-17.86,3.98-19.56,12.41c-0.11,0.54-0.221,1.11-0.341,1.67c-0.67,2.99-2.33,5.3-3.79,6.85   c-2.739-1.69-5.31-3.37-7.39-4.98c-6.28-4.86-14.14-19.48-20.45-31.22c-3.54-6.59-6.88-12.81-9.6-16.72   c-8.11-11.66-26.19-16.1-41.04-18.66c-13.75-2.37-99.17-3.3-102.8-3.34h-0.06c-3.63,0.04-89.05,0.97-102.8,3.34   c-14.85,2.56-32.93,7-41.04,18.66c-2.72,3.91-6.06,10.13-9.6,16.72c-6.31,11.74-14.17,26.36-20.45,31.22   c-2.08,1.61-4.65,3.29-7.39,4.98c-1.47-1.55-3.12-3.86-3.78-6.83c-0.13-0.58-0.24-1.15-0.35-1.69c-1.7-8.44-4.19-12.41-19.57-12.41   c-12.32,0-25.46,1.13-25.46,14.6c0,5.1,3.07,13.64,23.68,13.64h0.86c3.96-0.01,7.54-0.01,10.54,1.2   c-6.87,4.34-11.06,7.76-11.9,11.53c-0.3,1.36-0.48,5.88-0.59,12.25c-17.38,5.06-16.38,20.34-16.11,22.7v107.5   c0,8.07,6.56,14.63,14.63,14.63h47.45c6.74,0,12.52-4.739,14.14-11.069c12.55,1.38,26.91,2.08,43.08,2.08c0.5,0,1-0.13,1.44-0.38   l15.49-8.86c5.28,1.21,28.11,5.47,87.76,5.47c59.64,0,82.48-4.26,87.75-5.47l15.5,8.86c0.44,0.25,0.94,0.38,1.44,0.38   c16.17,0,30.529-0.7,43.069-2.08c1.62,6.33,7.4,11.069,14.15,11.069h47.45c8.069,0,14.63-6.56,14.63-14.63v-107.5   c0.27-2.359,1.26-17.64-16.11-22.7c-0.1-6.37-0.29-10.89-0.59-12.26c-0.84-3.76-5.03-7.18-11.9-11.52   C454.401,212.21,457.97,212.2,461.93,212.21z M50.06,206.38h-0.85c-6.67,0-17.85-1.01-17.85-7.81c0-4.97,1.44-8.77,19.63-8.77   c12.29,0,12.68,1.95,13.85,7.74c0.11,0.56,0.23,1.15,0.37,1.78c0.81,3.65,2.63,6.55,4.4,8.65c-0.44,0.26-0.88,0.53-1.32,0.79   c-0.68,0.4-1.34,0.79-1.99,1.18C61.37,206.37,55.4,206.36,50.06,206.38z M94.09,376.19H46.64c-4.85,0-8.8-3.95-8.8-8.801v-107.67   c0-0.16-0.01-0.319-0.04-0.479c-0.08-0.5-1.73-11.38,10.25-15.88c-0.19,25.6,0.49,68.91,0.59,75.42   c0.23,9.34,1.31,31.52,6.52,35.689c9.44,7.55,25.26,12.811,47.21,15.761C101.17,373.679,97.88,376.19,94.09,376.19z    M463.361,318.76c0.1-6.49,0.779-49.81,0.59-75.4c11.64,4.35,10.439,14.64,10.25,15.88c-0.03,0.16-0.04,0.319-0.04,0.479v107.67   c0,4.851-3.95,8.801-8.8,8.801h-47.45c-3.8,0-7.08-2.511-8.29-5.96c21.97-2.95,37.78-8.211,47.21-15.761   C462.05,350.3,463.13,328.12,463.361,318.76z M457.52,318.639c-0.319,13.41-2.14,29.181-4.329,31.28   c-10.011,8-27.7,12.46-47.011,14.84h-0.029c-0.131,0-0.24,0.03-0.36,0.04c-14.75,1.79-30.42,2.38-44.32,2.4l-15.84-9.05   c-0.67-0.391-1.49-0.48-2.24-0.271c-0.189,0.05-20.55,5.54-87.39,5.54s-87.2-5.49-87.39-5.54c-0.75-0.22-1.56-0.12-2.25,0.271   l-15.83,9.05c-13.87-0.021-29.51-0.61-44.24-2.391c-0.14-0.02-0.29-0.05-0.44-0.05c0,0-0.01,0-0.02,0   c-19.31-2.37-37-6.83-47.01-14.83c-2.2-2.109-4.02-17.88-4.34-31.27c-0.34-20.601-0.66-49.28-0.62-69.27l24.45,42.66l-2.55,44.41   c-0.02,0.32,0.02,0.62,0.1,0.91c0.01,0.03,0.02,0.06,0.02,0.09c0.04,0.12,0.08,0.23,0.13,0.34c0.02,0.05,0.04,0.08,0.06,0.12   c0.05,0.11,0.11,0.22,0.18,0.311c0,0.01,0.01,0.029,0.01,0.039l9.91,14.61c0.54,0.811,1.44,1.29,2.41,1.29h64.88   c0.36,0,0.71-0.07,1.05-0.2c15.61-5.97,41.48-15.26,48.2-16.22l-20.17,13.79c-1.06,0.72-1.52,2.05-1.14,3.27   c0.37,1.221,1.51,2.051,2.78,2.051H327.81c1.28,0,2.41-0.83,2.79-2.051c0.381-1.22-0.09-2.55-1.14-3.27l-20.17-13.79   c6.71,0.95,32.59,10.25,48.2,16.22c0.34,0.13,0.689,0.2,1.05,0.2h64.88c0.96,0,1.87-0.479,2.41-1.29l9.9-14.61   c0.01-0.01,0.01-0.02,0.02-0.029c0.07-0.101,0.13-0.21,0.18-0.32c0.021-0.04,0.04-0.07,0.051-0.11c0.05-0.109,0.1-0.229,0.14-0.35   c0-0.03,0.01-0.05,0.01-0.08c0.08-0.29,0.13-0.6,0.11-0.92l-2.55-44.41l24.449-42.67C458.18,269.37,457.861,298.05,457.52,318.639z    M299.861,331.83c-0.091-0.01-0.181,0-0.271,0h-95.94c-7.17,0-44.39,14.09-50.72,16.5h-62.8l-7.87-11.61l22.09-29.31   c75.67,19.92,148.23,17.42,151.65,17.29c3.42,0.13,75.97,2.63,151.65-17.29l22.09,29.31l-7.87,11.61h-62.8   c-6.33-2.41-43.551-16.5-50.721-16.5H299.861z M318.38,351.03H193.62l19.55-13.37h85.66L318.38,351.03z M457.59,226.2   c0.25,1.1,0.4,5.33,0.48,11.58l-29.87,52.13c-0.28,0.49-0.42,1.05-0.38,1.609l2.05,35.681l-18.74-24.87   c-0.72-0.95-1.939-1.36-3.09-1.061c-76.92,20.62-151.17,17.62-151.91,17.591c-0.05,0-0.09,0.01-0.13,0.01s-0.08-0.01-0.13-0.01   c-0.74,0.04-74.99,3.029-151.91-17.591c-1.15-0.3-2.37,0.11-3.09,1.061L82.13,327.2l2.05-35.681c0.04-0.56-0.1-1.119-0.38-1.609   l-29.87-52.12c0.08-6.26,0.23-10.49,0.48-11.59c0.62-2.8,10.39-8.59,16.85-12.43c5.13-3.04,10.44-6.18,14.39-9.24   c7.26-5.61,15.1-20.2,22.02-33.07c3.45-6.44,6.72-12.52,9.25-16.15c6.95-10,24.58-14.05,37.24-16.24   c13.23-2.28,100.16-3.24,101.84-3.26c1.68,0.02,88.61,0.98,101.84,3.26c12.66,2.19,30.29,6.24,37.24,16.24   c2.53,3.63,5.8,9.71,9.25,16.15c6.92,12.87,14.76,27.46,22.02,33.07c2.83,2.19,6.351,4.42,10,6.62c0,0.01,0.011,0.01,0.011,0.01   c1.449,0.88,2.92,1.75,4.37,2.61C447.2,217.61,456.97,223.4,457.59,226.2z M445.7,209.94c-0.65-0.39-1.311-0.78-1.99-1.18   c-0.44-0.26-0.88-0.53-1.32-0.79c1.771-2.1,3.591-5,4.4-8.66c0.14-0.62,0.25-1.21,0.37-1.77c1.17-5.79,1.56-7.74,13.84-7.74   c18.19,0,19.64,3.8,19.64,8.77c0,6.8-11.18,7.81-17.85,7.81h-0.85C456.611,206.36,450.63,206.37,445.7,209.94z" fill="#052C49"/></g></svg>